  0
SECTION
  2
HEADER
  9
$ACADVER
  1
AC1014
  9
$HANDSEED
  5
FFFF
  9
$INSUNITS
 70
     0
  9
$MEASUREMENT
 70
     1
  0
ENDSEC
  0
SECTION
  2
TABLES
  0
TABLE
  2
VPORT
  5
8
330
0
100
AcDbSymbolTable
 70
     4
  0
VPORT
  5
2E
330
8
100
AcDbSymbolTableRecord
100
AcDbViewportTableRecord
  2
*ACTIVE
 70
     0
 10
0.0
 20
0.0
 11
1.0
 21
1.0
 12
210.0
 22
148.5
 13
0.0
 23
0.0
 14
10.0
 24
10.0
 15
10.0
 25
10.0
 16
0.0
 26
0.0
 36
1.0
 17
0.0
 27
0.0
 37
0.0
 40
341.0
 41
1.24
 42
50.0
 43
0.0
 44
0.0
 50
0.0
 51
0.0
 71
     0
 72
   100
 73
     1
 74
     3
 75
     0
 76
     0
 77
     0
 78
     0
  0
ENDTAB
  0
TABLE
  2
LTYPE
  5
5
330
0
100
AcDbSymbolTable
 70
     1
  0
LTYPE
  5
14
330
5
100
AcDbSymbolTableRecord
100
AcDbLinetypeTableRecord
  2
BYBLOCK
 70
     0
  3

 72
    65
 73
     0
 40
0.0
  0
LTYPE
  5
15
330
5
100
AcDbSymbolTableRecord
100
AcDbLinetypeTableRecord
  2
BYLAYER
 70
     0
  3

 72
    65
 73
     0
 40
0.0
  0
LTYPE
  5
16
330
5
100
AcDbSymbolTableRecord
100
AcDbLinetypeTableRecord
  2
CONTINUOUS
 70
     0
  3
Solid line
 72
    65
 73
     0
 40
0.0
  0
ENDTAB
  0
TABLE
  2
LAYER
  5
2
100
AcDbSymbolTable
 70
1
  0
LAYER
  5
50
100
AcDbSymbolTableRecord
100
AcDbLayerTableRecord
  2
0
 70
0
  6
CONTINUOUS
  0
ENDTAB
  0
TABLE
  2
STYLE
  5
3
330
0
100
AcDbSymbolTable
 70
     1
  0
STYLE
  5
11
330
3
100
AcDbSymbolTableRecord
100
AcDbTextStyleTableRecord
  2
STANDARD
 70
     0
 40
0.0
 41
1.0
 50
0.0
 71
     0
 42
2.5
  3
txt
  4

  0
ENDTAB
  0
TABLE
  2
VIEW
  5
6
330
0
100
AcDbSymbolTable
 70
     0
  0
ENDTAB
  0
TABLE
  2
UCS
  5
7
330
0
100
AcDbSymbolTable
 70
     0
  0
ENDTAB
  0
TABLE
  2
APPID
  5
9
330
0
100
AcDbSymbolTable
 70
     2
  0
APPID
  5
12
330
9
100
AcDbSymbolTableRecord
100
AcDbRegAppTableRecord
  2
ACAD
 70
     0
  0
ENDTAB
  0
TABLE
  2
DIMSTYLE
  5
A
330
0
100
AcDbSymbolTable
 70
     1
  0
DIMSTYLE
105
27
330
A
100
AcDbSymbolTableRecord
100
AcDbDimStyleTableRecord
  2
ISO-25
 70
     0
  3

  4

  5

  6

  7

 40
1.0
 41
2.5
 42
0.625
 43
3.75
 44
1.25
 45
0.0
 46
0.0
 47
0.0
 48
0.0
140
2.5
141
2.5
142
0.0
143
0.03937007874016
144
1.0
145
0.0
146
1.0
147
0.625
 71
     0
 72
     0
 73
     0
 74
     0
 75
     0
 76
     0
 77
     1
 78
     8
170
     0
171
     3
172
     1
173
     0
174
     0
175
     0
176
     0
177
     0
178
     0
270
     2
271
     2
272
     2
273
     2
274
     3
340
11
275
     0
280
     0
281
     0
282
     0
283
     0
284
     8
285
     0
286
     0
287
     3
288
     0
  0
ENDTAB
  0
TABLE
  2
BLOCK_RECORD
  5
1
330
0
100
AcDbSymbolTable
 70
     1
  0
BLOCK_RECORD
  5
1F
330
1
100
AcDbSymbolTableRecord
100
AcDbBlockTableRecord
  2
*MODEL_SPACE
  0
BLOCK_RECORD
  5
1B
330
1
100
AcDbSymbolTableRecord
100
AcDbBlockTableRecord
  2
*PAPER_SPACE
  0
ENDTAB
  0
ENDSEC
  0
SECTION
  2
BLOCKS
  0
BLOCK
  5
20
330
1F
100
AcDbEntity
  8
0
100
AcDbBlockBegin
  2
*MODEL_SPACE
 70
     0
 10
0.0
 20
0.0
 30
0.0
  3
*MODEL_SPACE
  1

  0
ENDBLK
  5
21
330
1F
100
AcDbEntity
  8
0
100
AcDbBlockEnd
  0
BLOCK
  5
1C
330
1B
100
AcDbEntity
 67
     1
  8
0
100
AcDbBlockBegin
  2
*PAPER_SPACE
  1

  0
ENDBLK
  5
1D
330
1B
100
AcDbEntity
 67
     1
  8
0
100
AcDbBlockEnd
  0
ENDSEC
  0
SECTION
  2
ENTITIES
  0
SPLINE
  5
100
100
AcDbEntity
  8
0
 62
7
100
AcDbSpline
 70
8
 71
3
 72
8
 73
4
 74
0
 40
0
 40
0
 40
0
 40
0
 40
1
 40
1
 40
1
 40
1
 10
404.272850
 20
342.630594
 30
0.0
 10
403.094133
 20
328.749649
 30
0.0
 10
412.516115
 20
255.277570
 30
0.0
 10
417.378324
 20
226.468792
 30
0.0
  0
SPLINE
  5
101
100
AcDbEntity
  8
0
 62
7
100
AcDbSpline
 70
8
 71
3
 72
8
 73
4
 74
0
 40
0
 40
0
 40
0
 40
0
 40
1
 40
1
 40
1
 40
1
 10
417.378324
 20
226.468792
 30
0.0
 10
419.693107
 20
212.820488
 30
0.0
 10
426.040344
 20
190.583833
 30
0.0
 10
423.756579
 20
178.777275
 30
0.0
  0
SPLINE
  5
102
100
AcDbEntity
  8
0
 62
7
100
AcDbSpline
 70
8
 71
3
 72
8
 73
4
 74
0
 40
0
 40
0
 40
0
 40
0
 40
1
 40
1
 40
1
 40
1
 10
423.756579
 20
178.777275
 30
0.0
 10
420.495720
 20
162.321763
 30
0.0
 10
419.553522
 20
141.027306
 30
0.0
 10
421.348739
 20
128.627512
 30
0.0
  0
SPLINE
  5
103
100
AcDbEntity
  8
0
 62
7
100
AcDbSpline
 70
8
 71
3
 72
8
 73
4
 74
0
 40
0
 40
0
 40
0
 40
0
 40
1
 40
1
 40
1
 40
1
 10
421.348739
 20
128.627512
 30
0.0
 10
422.480928
 20
121.097680
 30
0.0
 10
426.044221
 20
86.368175
 30
0.0
 10
420.945494
 20
73.665946
 30
0.0
  0
SPLINE
  5
104
100
AcDbEntity
  8
0
 62
7
100
AcDbSpline
 70
8
 71
3
 72
8
 73
4
 74
0
 40
0
 40
0
 40
0
 40
0
 40
1
 40
1
 40
1
 40
1
 10
420.945494
 20
73.665946
 30
0.0
 10
418.277871
 20
67.004643
 30
0.0
 10
413.388521
 20
32.868373
 30
0.0
 10
413.388521
 20
32.868373
 30
0.0
  0
SPLINE
  5
105
100
AcDbEntity
  8
0
 62
7
100
AcDbSpline
 70
8
 71
3
 72
8
 73
4
 74
0
 40
0
 40
0
 40
0
 40
0
 40
1
 40
1
 40
1
 40
1
 10
413.388521
 20
32.868373
 30
0.0
 10
400.651396
 20
0.709557
 30
0.0
 10
407.840020
 20
2.291519
 30
0.0
 10
407.840020
 20
2.291519
 30
0.0
  0
SPLINE
  5
106
100
AcDbEntity
  8
0
 62
7
100
AcDbSpline
 70
8
 71
3
 72
8
 73
4
 74
0
 40
0
 40
0
 40
0
 40
0
 40
1
 40
1
 40
1
 40
1
 10
407.840020
 20
2.291519
 30
0.0
 10
411.783294
 20
-2.547425
 30
0.0
 10
418.537654
 20
1.911538
 30
0.0
 10
418.537654
 20
1.911538
 30
0.0
  0
SPLINE
  5
107
100
AcDbEntity
  8
0
 62
7
100
AcDbSpline
 70
8
 71
3
 72
8
 73
4
 74
0
 40
0
 40
0
 40
0
 40
0
 40
1
 40
1
 40
1
 40
1
 10
418.537654
 20
1.911538
 30
0.0
 10
423.682910
 20
-1.368708
 30
0.0
 10
427.246203
 20
2.690887
 30
0.0
 10
427.246203
 20
2.690887
 30
0.0
  0
SPLINE
  5
108
100
AcDbEntity
  8
0
 62
7
100
AcDbSpline
 70
8
 71
3
 72
8
 73
4
 74
0
 40
0
 40
0
 40
0
 40
0
 40
1
 40
1
 40
1
 40
1
 10
427.246203
 20
2.690887
 30
0.0
 10
431.662515
 20
-0.965462
 30
0.0
 10
436.811648
 20
3.140661
 30
0.0
 10
436.811648
 20
3.140661
 30
0.0
  0
SPLINE
  5
109
100
AcDbEntity
  8
0
 62
7
100
AcDbSpline
 70
8
 71
3
 72
8
 73
4
 74
0
 40
0
 40
0
 40
0
 40
0
 40
1
 40
1
 40
1
 40
1
 10
436.811648
 20
3.140661
 30
0.0
 10
442.360149
 20
0.259783
 30
0.0
 10
447.505404
 20
5.571765
 30
0.0
 10
447.505404
 20
5.571765
 30
0.0
  0
SPLINE
  5
10a
100
AcDbEntity
  8
0
 62
7
100
AcDbSpline
 70
8
 71
3
 72
8
 73
4
 74
0
 40
0
 40
0
 40
0
 40
0
 40
1
 40
1
 40
1
 40
1
 10
447.505404
 20
5.571765
 30
0.0
 10
450.692593
 20
3.966538
 30
0.0
 10
451.471942
 20
5.994397
 30
0.0
 10
451.471942
 20
5.994397
 30
0.0
  0
SPLINE
  5
10b
100
AcDbEntity
  8
0
 62
7
100
AcDbSpline
 70
8
 71
3
 72
8
 73
4
 74
0
 40
0
 40
0
 40
0
 40
0
 40
1
 40
1
 40
1
 40
1
 10
451.471942
 20
5.994397
 30
0.0
 10
461.033510
 20
6.607020
 30
0.0
 10
446.136696
 20
37.207138
 30
0.0
 10
446.136696
 20
37.207138
 30
0.0
  0
SPLINE
  5
10c
100
AcDbEntity
  8
0
 62
7
100
AcDbSpline
 70
8
 71
3
 72
8
 73
4
 74
0
 40
0
 40
0
 40
0
 40
0
 40
1
 40
1
 40
1
 40
1
 10
446.136696
 20
37.207138
 30
0.0
 10
442.569526
 20
64.689860
 30
0.0
 10
449.676725
 20
79.986042
 30
0.0
 10
449.676725
 20
79.986042
 30
0.0
  0
SPLINE
  5
10d
100
AcDbEntity
  8
0
 62
7
100
AcDbSpline
 70
8
 71
3
 72
8
 73
4
 74
0
 40
0
 40
0
 40
0
 40
0
 40
1
 40
1
 40
1
 40
1
 10
449.676725
 20
79.986042
 30
0.0
 10
472.956389
 20
149.022421
 30
0.0
 10
474.138984
 20
167.342943
 30
0.0
 10
464.833322
 20
193.360022
 30
0.0
  0
SPLINE
  5
10e
100
AcDbEntity
  8
0
 62
7
100
AcDbSpline
 70
8
 71
3
 72
8
 73
4
 74
0
 40
0
 40
0
 40
0
 40
0
 40
1
 40
1
 40
1
 40
1
 10
464.833322
 20
193.360022
 30
0.0
 10
462.212227
 20
200.870467
 30
0.0
 10
461.549199
 20
203.844402
 30
0.0
 10
462.755058
 20
207.105261
 30
0.0
  0
SPLINE
  5
10f
100
AcDbEntity
  8
0
 62
7
100
AcDbSpline
 70
8
 71
3
 72
8
 73
4
 74
0
 40
0
 40
0
 40
0
 40
0
 40
1
 40
1
 40
1
 40
1
 10
462.755058
 20
207.105261
 30
0.0
 10
465.542879
 20
214.631215
 30
0.0
 10
463.511143
 20
244.901757
 30
0.0
 10
466.911587
 20
256.921571
 30
0.0
  0
SPLINE
  5
110
100
AcDbEntity
  8
0
 62
7
100
AcDbSpline
 70
8
 71
3
 72
8
 73
4
 74
0
 40
0
 40
0
 40
0
 40
0
 40
1
 40
1
 40
1
 40
1
 10
466.911587
 20
256.921571
 30
0.0
 10
473.472078
 20
280.104301
 30
0.0
 10
479.943391
 20
338.896697
 30
0.0
 10
483.316693
 20
366.329013
 30
0.0
  0
SPLINE
  5
111
100
AcDbEntity
  8
0
 62
7
100
AcDbSpline
 70
8
 71
3
 72
8
 73
4
 74
0
 40
0
 40
0
 40
0
 40
0
 40
1
 40
1
 40
1
 40
1
 10
483.316693
 20
366.329013
 30
0.0
 10
487.849326
 20
403.280246
 30
0.0
 10
467.260549
 20
452.825141
 30
0.0
 10
467.260549
 20
452.825141
 30
0.0
  0
SPLINE
  5
112
100
AcDbEntity
  8
0
 62
7
100
AcDbSpline
 70
8
 71
3
 72
8
 73
4
 74
0
 40
0
 40
0
 40
0
 40
0
 40
1
 40
1
 40
1
 40
1
 10
467.260549
 20
452.825141
 30
0.0
 10
462.751180
 20
472.987408
 30
0.0
 10
469.362077
 20
544.823241
 30
0.0
 10
469.362077
 20
544.823241
 30
0.0
  0
SPLINE
  5
113
100
AcDbEntity
  8
0
 62
7
100
AcDbSpline
 70
8
 71
3
 72
8
 73
4
 74
0
 40
0
 40
0
 40
0
 40
0
 40
1
 40
1
 40
1
 40
1
 10
469.362077
 20
544.823241
 30
0.0
 10
478.594070
 20
530.457625
 30
0.0
 10
478.241230
 20
505.099697
 30
0.0
 10
478.241230
 20
505.099697
 30
0.0
  0
SPLINE
  5
114
100
AcDbEntity
  8
0
 62
7
100
AcDbSpline
 70
8
 71
3
 72
8
 73
4
 74
0
 40
0
 40
0
 40
0
 40
0
 40
1
 40
1
 40
1
 40
1
 10
478.241230
 20
505.099697
 30
0.0
 10
476.775588
 20
478.504890
 30
0.0
 10
499.725677
 20
437.858535
 30
0.0
 10
499.725677
 20
437.858535
 30
0.0
  0
SPLINE
  5
115
100
AcDbEntity
  8
0
 62
7
100
AcDbSpline
 70
8
 71
3
 72
8
 73
4
 74
0
 40
0
 40
0
 40
0
 40
0
 40
1
 40
1
 40
1
 40
1
 10
499.725677
 20
437.858535
 30
0.0
 10
510.752886
 20
421.061815
 30
0.0
 10
514.928802
 20
405.125869
 30
0.0
 10
514.928802
 20
403.943274
 30
0.0
  0
SPLINE
  5
116
100
AcDbEntity
  8
0
 62
7
100
AcDbSpline
 70
8
 71
3
 72
8
 73
4
 74
0
 40
0
 40
0
 40
0
 40
0
 40
1
 40
1
 40
1
 40
1
 10
514.928802
 20
403.943274
 30
0.0
 10
514.928802
 20
399.104330
 30
0.0
 10
513.870283
 20
387.390828
 30
0.0
 10
513.870283
 20
387.390828
 30
0.0
  0
SPLINE
  5
117
100
AcDbEntity
  8
0
 62
7
100
AcDbSpline
 70
8
 71
3
 72
8
 73
4
 74
0
 40
0
 40
0
 40
0
 40
0
 40
1
 40
1
 40
1
 40
1
 10
514.292915
 20
377.189496
 30
0.0
 10
514.482906
 20
374.591666
 30
0.0
 10
515.944670
 20
365.646598
 30
0.0
 10
515.708151
 20
361.323343
 30
0.0
  0
SPLINE
  5
118
100
AcDbEntity
  8
0
 62
7
100
AcDbSpline
 70
8
 71
3
 72
8
 73
4
 74
0
 40
0
 40
0
 40
0
 40
0
 40
1
 40
1
 40
1
 40
1
 10
515.708151
 20
361.323343
 30
0.0
 10
513.986604
 20
334.716904
 30
0.0
 10
518.212925
 20
339.722575
 30
0.0
 10
518.212925
 20
339.722575
 30
0.0
  0
SPLINE
  5
119
100
AcDbEntity
  8
0
 62
7
100
AcDbSpline
 70
8
 71
3
 72
8
 73
4
 74
0
 40
0
 40
0
 40
0
 40
0
 40
1
 40
1
 40
1
 40
1
 10
518.212925
 20
339.722575
 30
0.0
 10
521.780096
 20
339.722575
 30
0.0
 10
525.700106
 20
361.133352
 30
0.0
 10
525.700106
 20
361.133352
 30
0.0
  0
SPLINE
  5
11a
100
AcDbEntity
  8
0
 62
7
100
AcDbSpline
 70
8
 71
3
 72
8
 73
4
 74
0
 40
0
 40
0
 40
0
 40
0
 40
1
 40
1
 40
1
 40
1
 10
525.700106
 20
361.133352
 30
0.0
 10
525.700106
 20
355.611993
 30
0.0
 10
524.350785
 20
339.082811
 30
0.0
 10
527.328596
 20
332.848017
 30
0.0
  0
SPLINE
  5
11b
100
AcDbEntity
  8
0
 62
7
100
AcDbSpline
 70
8
 71
3
 72
8
 73
4
 74
0
 40
0
 40
0
 40
0
 40
0
 40
1
 40
1
 40
1
 40
1
 10
527.328596
 20
332.848017
 30
0.0
 10
530.891890
 20
325.411242
 30
0.0
 10
533.512984
 20
334.123668
 30
0.0
 10
533.559513
 20
335.872357
 30
0.0
  0
SPLINE
  5
11c
100
AcDbEntity
  8
0
 62
7
100
AcDbSpline
 70
8
 71
3
 72
8
 73
4
 74
0
 40
0
 40
0
 40
0
 40
0
 40
1
 40
1
 40
1
 40
1
 10
533.559513
 20
335.872357
 30
0.0
 10
534.501711
 20
369.748844
 30
0.0
 10
536.537324
 20
360.873569
 30
0.0
 10
536.537324
 20
360.873569
 30
0.0
  0
SPLINE
  5
11d
100
AcDbEntity
  8
0
 62
7
100
AcDbSpline
 70
8
 71
3
 72
8
 73
4
 74
0
 40
0
 40
0
 40
0
 40
0
 40
1
 40
1
 40
1
 40
1
 10
536.537324
 20
360.873569
 30
0.0
 10
538.518655
 20
333.390847
 30
0.0
 10
540.953636
 20
327.183196
 30
0.0
 10
545.319543
 20
329.331252
 30
0.0
  0
SPLINE
  5
11e
100
AcDbEntity
  8
0
 62
7
100
AcDbSpline
 70
8
 71
3
 72
8
 73
4
 74
0
 40
0
 40
0
 40
0
 40
0
 40
1
 40
1
 40
1
 40
1
 10
545.319543
 20
329.331252
 30
0.0
 10
548.626930
 20
330.909338
 30
0.0
 10
545.602590
 20
362.312069
 30
0.0
 10
545.602590
 20
362.312069
 30
0.0
  0
SPLINE
  5
11f
100
AcDbEntity
  8
0
 62
7
100
AcDbSpline
 70
8
 71
3
 72
8
 73
4
 74
0
 40
0
 40
0
 40
0
 40
0
 40
1
 40
1
 40
1
 40
1
 10
545.602590
 20
362.312069
 30
0.0
 10
551.267412
 20
343.658094
 30
0.0
 10
555.563526
 20
340.688037
 30
0.0
 10
555.563526
 20
340.688037
 30
0.0
  0
SPLINE
  5
120
100
AcDbEntity
  8
0
 62
7
100
AcDbSpline
 70
8
 71
3
 72
8
 73
4
 74
0
 40
0
 40
0
 40
0
 40
0
 40
1
 40
1
 40
1
 40
1
 10
555.563526
 20
340.688037
 30
0.0
 10
564.911839
 20
334.123668
 30
0.0
 10
559.130696
 20
352.254200
 30
0.0
 10
557.831781
 20
355.844634
 30
0.0
  0
SPLINE
  5
121
100
AcDbEntity
  8
0
 62
7
100
AcDbSpline
 70
8
 71
3
 72
8
 73
4
 74
0
 40
0
 40
0
 40
0
 40
0
 40
1
 40
1
 40
1
 40
1
 10
557.831781
 20
355.844634
 30
0.0
 10
550.914572
 20
374.921241
 30
0.0
 10
550.701317
 20
381.532138
 30
0.0
 10
550.701317
 20
381.532138
 30
0.0
  0
SPLINE
  5
122
100
AcDbEntity
  8
0
 62
7
100
AcDbSpline
 70
8
 71
3
 72
8
 73
4
 74
0
 40
0
 40
0
 40
0
 40
0
 40
1
 40
1
 40
1
 40
1
 10
550.701317
 20
381.532138
 30
0.0
 10
559.343951
 20
364.390334
 30
0.0
 10
565.857914
 20
365.026221
 30
0.0
 10
565.857914
 20
365.026221
 30
0.0
  0
SPLINE
  5
123
100
AcDbEntity
  8
0
 62
7
100
AcDbSpline
 70
8
 71
3
 72
8
 73
4
 74
0
 40
0
 40
0
 40
0
 40
0
 40
1
 40
1
 40
1
 40
1
 10
565.857914
 20
365.026221
 30
0.0
 10
574.287293
 20
367.717108
 30
0.0
 10
558.490932
 20
391.989376
 30
0.0
 10
549.235676
 20
403.617576
 30
0.0
  0
SPLINE
  5
124
100
AcDbEntity
  8
0
 62
7
100
AcDbSpline
 70
8
 71
3
 72
8
 73
4
 74
0
 40
0
 40
0
 40
0
 40
0
 40
1
 40
1
 40
1
 40
1
 10
549.235676
 20
403.617576
 30
0.0
 10
544.513052
 20
409.542181
 30
0.0
 10
538.421721
 20
417.475258
 30
0.0
 10
536.653645
 20
422.186249
 30
0.0
  0
SPLINE
  5
125
100
AcDbEntity
  8
0
 62
7
100
AcDbSpline
 70
8
 71
3
 72
8
 73
4
 74
0
 40
0
 40
0
 40
0
 40
0
 40
1
 40
1
 40
1
 40
1
 10
536.653645
 20
422.186249
 30
0.0
 10
533.772767
 20
430.165854
 30
0.0
 10
531.597569
 20
455.818462
 30
0.0
 10
531.597569
 20
455.818462
 30
0.0
  0
SPLINE
  5
126
100
AcDbEntity
  8
0
 62
7
100
AcDbSpline
 70
8
 71
3
 72
8
 73
4
 74
0
 40
0
 40
0
 40
0
 40
0
 40
1
 40
1
 40
1
 40
1
 10
531.597569
 20
455.818462
 30
0.0
 10
530.725163
 20
486.089005
 30
0.0
 10
523.241860
 20
499.237130
 30
0.0
 10
523.241860
 20
499.237130
 30
0.0
  0
SPLINE
  5
127
100
AcDbEntity
  8
0
 62
7
100
AcDbSpline
 70
8
 71
3
 72
8
 73
4
 74
0
 40
0
 40
0
 40
0
 40
0
 40
1
 40
1
 40
1
 40
1
 10
523.241860
 20
499.237130
 30
0.0
 10
510.446575
 20
519.717341
 30
0.0
 10
508.038735
 20
557.920960
 30
0.0
 10
508.038735
 20
557.920960
 30
0.0
  0
LWPOLYLINE
  5
128
100
AcDbEntity
  8
0
 62
7
100
AcDbPolyline
 90
2
 70
0
 10
513.870283
 20
387.390828
 30
0.0
 10
514.292915
 20
377.189496
 30
0.0
  0
SPLINE
  5
129
100
AcDbEntity
  8
0
 62
7
100
AcDbSpline
 70
8
 71
3
 72
8
 73
4
 74
0
 40
0
 40
0
 40
0
 40
0
 40
1
 40
1
 40
1
 40
1
 10
507.472640
 20
622.420829
 30
0.0
 10
502.986536
 20
666.417223
 30
0.0
 10
470.567936
 20
666.735167
 30
0.0
 10
470.567936
 20
666.735167
 30
0.0
  0
SPLINE
  5
12a
100
AcDbEntity
  8
0
 62
7
100
AcDbSpline
 70
8
 71
3
 72
8
 73
4
 74
0
 40
0
 40
0
 40
0
 40
0
 40
1
 40
1
 40
1
 40
1
 10
470.567936
 20
666.735167
 30
0.0
 10
437.800374
 20
671.612884
 30
0.0
 10
433.240600
 20
682.198075
 30
0.0
 10
433.240600
 20
682.198075
 30
0.0
  0
SPLINE
  5
12b
100
AcDbEntity
  8
0
 62
7
100
AcDbSpline
 70
8
 71
3
 72
8
 73
4
 74
0
 40
0
 40
0
 40
0
 40
0
 40
1
 40
1
 40
1
 40
1
 10
433.240600
 20
682.198075
 30
0.0
 10
426.300127
 20
692.186152
 30
0.0
 10
430.266665
 20
711.332551
 30
0.0
 10
430.266665
 20
711.332551
 30
0.0
  0
SPLINE
  5
12c
100
AcDbEntity
  8
0
 62
7
100
AcDbSpline
 70
8
 71
3
 72
8
 73
4
 74
0
 40
0
 40
0
 40
0
 40
0
 40
1
 40
1
 40
1
 40
1
 10
430.266665
 20
711.332551
 30
0.0
 10
436.024544
 20
716.016401
 30
0.0
 10
438.246270
 20
728.451092
 30
0.0
 10
438.246270
 20
728.451092
 30
0.0
  0
SPLINE
  5
12d
100
AcDbEntity
  8
0
 62
7
100
AcDbSpline
 70
8
 71
3
 72
8
 73
4
 74
0
 40
0
 40
0
 40
0
 40
0
 40
1
 40
1
 40
1
 40
1
 10
438.246270
 20
728.451092
 30
0.0
 10
447.807838
 20
735.783178
 30
0.0
 10
447.338678
 20
746.511831
 30
0.0
 10
442.922366
 20
746.395510
 30
0.0
  0
SPLINE
  5
12e
100
AcDbEntity
  8
0
 62
7
100
AcDbSpline
 70
8
 71
3
 72
8
 73
4
 74
0
 40
0
 40
0
 40
0
 40
0
 40
1
 40
1
 40
1
 40
1
 10
442.922366
 20
746.395510
 30
0.0
 10
439.378459
 20
746.302453
 30
0.0
 10
440.181073
 20
749.237614
 30
0.0
 10
440.181073
 20
749.237614
 30
0.0
  0
SPLINE
  5
12f
100
AcDbEntity
  8
0
 62
7
100
AcDbSpline
 70
8
 71
3
 72
8
 73
4
 74
0
 40
0
 40
0
 40
0
 40
0
 40
1
 40
1
 40
1
 40
1
 10
440.181073
 20
749.237614
 30
0.0
 10
446.159960
 20
797.534000
 30
0.0
 10
403.284123
 20
800.000000
 30
0.0
 10
403.284123
 20
800.000000
 30
0.0
  0
LWPOLYLINE
  5
130
100
AcDbEntity
  8
0
 62
7
100
AcDbPolyline
 90
2
 70
0
 10
508.038735
 20
557.920960
 30
0.0
 10
507.472640
 20
622.420829
 30
0.0
  0
SPLINE
  5
131
100
AcDbEntity
  8
0
 62
7
100
AcDbSpline
 70
8
 71
3
 72
8
 73
4
 74
0
 40
0
 40
0
 40
0
 40
0
 40
1
 40
1
 40
1
 40
1
 10
396.739141
 20
800.000000
 30
0.0
 10
396.739141
 20
800.000000
 30
0.0
 10
353.843917
 20
797.534000
 30
0.0
 10
359.815050
 20
749.249246
 30
0.0
  0
SPLINE
  5
132
100
AcDbEntity
  8
0
 62
7
100
AcDbSpline
 70
8
 71
3
 72
8
 73
4
 74
0
 40
0
 40
0
 40
0
 40
0
 40
1
 40
1
 40
1
 40
1
 10
359.815050
 20
749.249246
 30
0.0
 10
359.815050
 20
749.249246
 30
0.0
 10
360.617663
 20
746.310208
 30
0.0
 10
357.042738
 20
746.407142
 30
0.0
  0
SPLINE
  5
133
100
AcDbEntity
  8
0
 62
7
100
AcDbSpline
 70
8
 71
3
 72
8
 73
4
 74
0
 40
0
 40
0
 40
0
 40
0
 40
1
 40
1
 40
1
 40
1
 10
357.042738
 20
746.407142
 30
0.0
 10
352.638058
 20
746.523463
 30
0.0
 10
352.227058
 20
735.794810
 30
0.0
 10
361.753730
 20
728.462724
 30
0.0
  0
SPLINE
  5
134
100
AcDbEntity
  8
0
 62
7
100
AcDbSpline
 70
8
 71
3
 72
8
 73
4
 74
0
 40
0
 40
0
 40
0
 40
0
 40
1
 40
1
 40
1
 40
1
 10
361.753730
 20
728.462724
 30
0.0
 10
361.753730
 20
728.462724
 30
0.0
 10
363.971579
 20
716.031911
 30
0.0
 10
369.733335
 20
711.344183
 30
0.0
  0
SPLINE
  5
135
100
AcDbEntity
  8
0
 62
7
100
AcDbSpline
 70
8
 71
3
 72
8
 73
4
 74
0
 40
0
 40
0
 40
0
 40
0
 40
1
 40
1
 40
1
 40
1
 10
369.733335
 20
711.344183
 30
0.0
 10
369.733335
 20
711.344183
 30
0.0
 10
373.699873
 20
692.197784
 30
0.0
 10
366.759400
 20
682.209707
 30
0.0
  0
SPLINE
  5
136
100
AcDbEntity
  8
0
 62
7
100
AcDbSpline
 70
8
 71
3
 72
8
 73
4
 74
0
 40
0
 40
0
 40
0
 40
0
 40
1
 40
1
 40
1
 40
1
 10
366.759400
 20
682.209707
 30
0.0
 10
366.759400
 20
682.209707
 30
0.0
 10
362.215135
 20
671.624517
 30
0.0
 10
329.432064
 20
666.746799
 30
0.0
  0
SPLINE
  5
137
100
AcDbEntity
  8
0
 62
7
100
AcDbSpline
 70
8
 71
3
 72
8
 73
4
 74
0
 40
0
 40
0
 40
0
 40
0
 40
1
 40
1
 40
1
 40
1
 10
329.432064
 20
666.746799
 30
0.0
 10
329.432064
 20
666.746799
 30
0.0
 10
296.959181
 20
666.428855
 30
0.0
 10
292.542869
 20
622.432461
 30
0.0
  0
LWPOLYLINE
  5
138
100
AcDbEntity
  8
0
 62
7
100
AcDbPolyline
 90
2
 70
0
 10
403.284123
 20
800.000000
 30
0.0
 10
396.739141
 20
800.000000
 30
0.0
  0
SPLINE
  5
139
100
AcDbEntity
  8
0
 62
7
100
AcDbSpline
 70
8
 71
3
 72
8
 73
4
 74
0
 40
0
 40
0
 40
0
 40
0
 40
1
 40
1
 40
1
 40
1
 10
291.930246
 20
557.932592
 30
0.0
 10
291.930246
 20
557.932592
 30
0.0
 10
289.568935
 20
519.728973
 30
0.0
 10
276.723244
 20
499.248762
 30
0.0
  0
SPLINE
  5
13a
100
AcDbEntity
  8
0
 62
7
100
AcDbSpline
 70
8
 71
3
 72
8
 73
4
 74
0
 40
0
 40
0
 40
0
 40
0
 40
1
 40
1
 40
1
 40
1
 10
276.723244
 20
499.248762
 30
0.0
 10
276.723244
 20
499.248762
 30
0.0
 10
269.274837
 20
486.096759
 30
0.0
 10
268.414063
 20
455.830094
 30
0.0
  0
SPLINE
  5
13b
100
AcDbEntity
  8
0
 62
7
100
AcDbSpline
 70
8
 71
3
 72
8
 73
4
 74
0
 40
0
 40
0
 40
0
 40
0
 40
1
 40
1
 40
1
 40
1
 10
268.414063
 20
455.830094
 30
0.0
 10
268.414063
 20
455.830094
 30
0.0
 10
266.231110
 20
430.177486
 30
0.0
 10
263.361864
 20
422.197881
 30
0.0
  0
SPLINE
  5
13c
100
AcDbEntity
  8
0
 62
7
100
AcDbSpline
 70
8
 71
3
 72
8
 73
4
 74
0
 40
0
 40
0
 40
0
 40
0
 40
1
 40
1
 40
1
 40
1
 10
263.361864
 20
422.197881
 30
0.0
 10
261.613175
 20
417.510154
 30
0.0
 10
255.525721
 20
409.577077
 30
0.0
 10
250.764324
 20
403.629208
 30
0.0
  0
SPLINE
  5
13d
100
AcDbEntity
  8
0
 62
7
100
AcDbSpline
 70
8
 71
3
 72
8
 73
4
 74
0
 40
0
 40
0
 40
0
 40
0
 40
1
 40
1
 40
1
 40
1
 10
250.764324
 20
403.629208
 30
0.0
 10
241.427644
 20
392.024272
 30
0.0
 10
225.735971
 20
367.802410
 30
0.0
 10
234.130454
 20
365.037853
 30
0.0
  0
SPLINE
  5
13e
100
AcDbEntity
  8
0
 62
7
100
AcDbSpline
 70
8
 71
3
 72
8
 73
4
 74
0
 40
0
 40
0
 40
0
 40
0
 40
1
 40
1
 40
1
 40
1
 10
234.130454
 20
365.037853
 30
0.0
 10
234.130454
 20
365.037853
 30
0.0
 10
240.679313
 20
364.401966
 30
0.0
 10
249.287051
 20
381.543771
 30
0.0
  0
SPLINE
  5
13f
100
AcDbEntity
  8
0
 62
7
100
AcDbSpline
 70
8
 71
3
 72
8
 73
4
 74
0
 40
0
 40
0
 40
0
 40
0
 40
1
 40
1
 40
1
 40
1
 10
249.287051
 20
381.543771
 30
0.0
 10
249.287051
 20
381.543771
 30
0.0
 10
249.108692
 20
374.979402
 30
0.0
 10
242.203115
 20
355.856266
 30
0.0
  0
SPLINE
  5
140
100
AcDbEntity
  8
0
 62
7
100
AcDbSpline
 70
8
 71
3
 72
8
 73
4
 74
0
 40
0
 40
0
 40
0
 40
0
 40
1
 40
1
 40
1
 40
1
 10
242.203115
 20
355.856266
 30
0.0
 10
240.846040
 20
352.312360
 30
0.0
 10
235.072652
 20
334.181829
 30
0.0
 10
244.424842
 20
340.699669
 30
0.0
  0
SPLINE
  5
141
100
AcDbEntity
  8
0
 62
7
100
AcDbSpline
 70
8
 71
3
 72
8
 73
4
 74
0
 40
0
 40
0
 40
0
 40
0
 40
1
 40
1
 40
1
 40
1
 10
244.424842
 20
340.699669
 30
0.0
 10
244.424842
 20
340.699669
 30
0.0
 10
248.755852
 20
343.673604
 30
0.0
 10
254.385778
 20
362.323701
 30
0.0
  0
SPLINE
  5
142
100
AcDbEntity
  8
0
 62
7
100
AcDbSpline
 70
8
 71
3
 72
8
 73
4
 74
0
 40
0
 40
0
 40
0
 40
0
 40
1
 40
1
 40
1
 40
1
 10
254.385778
 20
362.323701
 30
0.0
 10
254.385778
 20
362.323701
 30
0.0
 10
251.365315
 20
330.920970
 30
0.0
 10
254.726985
 20
329.342885
 30
0.0
  0
SPLINE
  5
143
100
AcDbEntity
  8
0
 62
7
100
AcDbSpline
 70
8
 71
3
 72
8
 73
4
 74
0
 40
0
 40
0
 40
0
 40
0
 40
1
 40
1
 40
1
 40
1
 10
254.726985
 20
329.342885
 30
0.0
 10
259.120033
 20
327.190950
 30
0.0
 10
261.516241
 20
333.402480
 30
0.0
 10
263.497572
 20
360.885201
 30
0.0
  0
SPLINE
  5
144
100
AcDbEntity
  8
0
 62
7
100
AcDbSpline
 70
8
 71
3
 72
8
 73
4
 74
0
 40
0
 40
0
 40
0
 40
0
 40
1
 40
1
 40
1
 40
1
 10
263.497572
 20
360.885201
 30
0.0
 10
263.497572
 20
360.885201
 30
0.0
 10
265.529308
 20
369.760476
 30
0.0
 10
266.471506
 20
335.883989
 30
0.0
  0
SPLINE
  5
145
100
AcDbEntity
  8
0
 62
7
100
AcDbSpline
 70
8
 71
3
 72
8
 73
4
 74
0
 40
0
 40
0
 40
0
 40
0
 40
1
 40
1
 40
1
 40
1
 10
266.471506
 20
335.883989
 30
0.0
 10
266.518035
 20
334.135300
 30
0.0
 10
269.080969
 20
325.422874
 30
0.0
 10
272.659771
 20
332.859649
 30
0.0
  0
SPLINE
  5
146
100
AcDbEntity
  8
0
 62
7
100
AcDbSpline
 70
8
 71
3
 72
8
 73
4
 74
0
 40
0
 40
0
 40
0
 40
0
 40
1
 40
1
 40
1
 40
1
 10
272.659771
 20
332.859649
 30
0.0
 10
275.680234
 20
339.094443
 30
0.0
 10
274.323158
 20
355.596483
 30
0.0
 10
274.323158
 20
361.144984
 30
0.0
  0
SPLINE
  5
147
100
AcDbEntity
  8
0
 62
7
100
AcDbSpline
 70
8
 71
3
 72
8
 73
4
 74
0
 40
0
 40
0
 40
0
 40
0
 40
1
 40
1
 40
1
 40
1
 10
274.323158
 20
361.144984
 30
0.0
 10
274.323158
 20
361.144984
 30
0.0
 10
278.196640
 20
339.734207
 30
0.0
 10
281.818094
 20
339.734207
 30
0.0
  0
SPLINE
  5
148
100
AcDbEntity
  8
0
 62
7
100
AcDbSpline
 70
8
 71
3
 72
8
 73
4
 74
0
 40
0
 40
0
 40
0
 40
0
 40
1
 40
1
 40
1
 40
1
 10
281.818094
 20
339.734207
 30
0.0
 10
281.818094
 20
339.734207
 30
0.0
 10
286.079311
 20
334.728536
 30
0.0
 10
284.330622
 20
361.334975
 30
0.0
  0
SPLINE
  5
149
100
AcDbEntity
  8
0
 62
7
100
AcDbSpline
 70
8
 71
3
 72
8
 73
4
 74
0
 40
0
 40
0
 40
0
 40
0
 40
1
 40
1
 40
1
 40
1
 10
284.330622
 20
361.334975
 30
0.0
 10
284.047575
 20
365.681494
 30
0.0
 10
285.571377
 20
374.603298
 30
0.0
 10
285.761368
 20
377.201128
 30
0.0
  0
LWPOLYLINE
  5
14a
100
AcDbEntity
  8
0
 62
7
100
AcDbPolyline
 90
2
 70
0
 10
292.542869
 20
622.432461
 30
0.0
 10
291.930246
 20
557.932592
 30
0.0
  0
SPLINE
  5
14b
100
AcDbEntity
  8
0
 62
7
100
AcDbSpline
 70
8
 71
3
 72
8
 73
4
 74
0
 40
0
 40
0
 40
0
 40
0
 40
1
 40
1
 40
1
 40
1
 10
286.172368
 20
387.402460
 30
0.0
 10
286.172368
 20
387.402460
 30
0.0
 10
285.109972
 20
399.088821
 30
0.0
 10
285.109972
 20
403.954906
 30
0.0
  0
SPLINE
  5
14c
100
AcDbEntity
  8
0
 62
7
100
AcDbSpline
 70
8
 71
3
 72
8
 73
4
 74
0
 40
0
 40
0
 40
0
 40
0
 40
1
 40
1
 40
1
 40
1
 10
285.109972
 20
403.954906
 30
0.0
 10
285.109972
 20
405.160765
 30
0.0
 10
289.289765
 20
421.073447
 30
0.0
 10
300.313097
 20
437.870167
 30
0.0
  0
SPLINE
  5
14d
100
AcDbEntity
  8
0
 62
7
100
AcDbSpline
 70
8
 71
3
 72
8
 73
4
 74
0
 40
0
 40
0
 40
0
 40
0
 40
1
 40
1
 40
1
 40
1
 10
300.313097
 20
437.870167
 30
0.0
 10
300.313097
 20
437.870167
 30
0.0
 10
323.239921
 20
478.535909
 30
0.0
 10
321.762647
 20
505.111329
 30
0.0
  0
SPLINE
  5
14e
100
AcDbEntity
  8
0
 62
7
100
AcDbSpline
 70
8
 71
3
 72
8
 73
4
 74
0
 40
0
 40
0
 40
0
 40
0
 40
1
 40
1
 40
1
 40
1
 10
321.762647
 20
505.111329
 30
0.0
 10
321.762647
 20
505.111329
 30
0.0
 10
321.444704
 20
530.469257
 30
0.0
 10
330.676696
 20
544.834873
 30
0.0
  0
SPLINE
  5
14f
100
AcDbEntity
  8
0
 62
7
100
AcDbSpline
 70
8
 71
3
 72
8
 73
4
 74
0
 40
0
 40
0
 40
0
 40
0
 40
1
 40
1
 40
1
 40
1
 10
330.676696
 20
544.834873
 30
0.0
 10
330.676696
 20
544.834873
 30
0.0
 10
337.229433
 20
473.002918
 30
0.0
 10
332.789857
 20
452.836773
 30
0.0
  0
SPLINE
  5
150
100
AcDbEntity
  8
0
 62
7
100
AcDbSpline
 70
8
 71
3
 72
8
 73
4
 74
0
 40
0
 40
0
 40
0
 40
0
 40
1
 40
1
 40
1
 40
1
 10
332.789857
 20
452.836773
 30
0.0
 10
332.789857
 20
452.836773
 30
0.0
 10
312.166184
 20
403.291878
 30
0.0
 10
316.714326
 20
366.340645
 30
0.0
  0
SPLINE
  5
151
100
AcDbEntity
  8
0
 62
7
100
AcDbSpline
 70
8
 71
3
 72
8
 73
4
 74
0
 40
0
 40
0
 40
0
 40
0
 40
1
 40
1
 40
1
 40
1
 10
316.714326
 20
366.340645
 30
0.0
 10
320.064364
 20
338.834660
 30
0.0
 10
326.524044
 20
280.119810
 30
0.0
 10
333.100046
 20
256.933203
 30
0.0
  0
SPLINE
  5
152
100
AcDbEntity
  8
0
 62
7
100
AcDbSpline
 70
8
 71
3
 72
8
 73
4
 74
0
 40
0
 40
0
 40
0
 40
0
 40
1
 40
1
 40
1
 40
1
 10
333.100046
 20
256.933203
 30
0.0
 10
336.535386
 20
244.936654
 30
0.0
 10
334.503650
 20
214.673866
 30
0.0
 10
337.256575
 20
207.116893
 30
0.0
  0
SPLINE
  5
153
100
AcDbEntity
  8
0
 62
7
100
AcDbSpline
 70
8
 71
3
 72
8
 73
4
 74
0
 40
0
 40
0
 40
0
 40
0
 40
1
 40
1
 40
1
 40
1
 10
337.256575
 20
207.116893
 30
0.0
 10
338.497329
 20
203.832770
 30
0.0
 10
337.845933
 20
200.808429
 30
0.0
 10
335.178310
 20
193.371655
 30
0.0
  0
SPLINE
  5
154
100
AcDbEntity
  8
0
 62
7
100
AcDbSpline
 70
8
 71
3
 72
8
 73
4
 74
0
 40
0
 40
0
 40
0
 40
0
 40
1
 40
1
 40
1
 40
1
 10
335.178310
 20
193.371655
 30
0.0
 10
325.923054
 20
167.354575
 30
0.0
 10
327.101771
 20
149.030176
 30
0.0
 10
350.381435
 20
79.997674
 30
0.0
  0
SPLINE
  5
155
100
AcDbEntity
  8
0
 62
7
100
AcDbSpline
 70
8
 71
3
 72
8
 73
4
 74
0
 40
0
 40
0
 40
0
 40
0
 40
1
 40
1
 40
1
 40
1
 10
350.381435
 20
79.997674
 30
0.0
 10
350.381435
 20
79.997674
 30
0.0
 10
357.546795
 20
64.701492
 30
0.0
 10
353.925341
 20
37.218770
 30
0.0
  0
SPLINE
  5
156
100
AcDbEntity
  8
0
 62
7
100
AcDbSpline
 70
8
 71
3
 72
8
 73
4
 74
0
 40
0
 40
0
 40
0
 40
0
 40
1
 40
1
 40
1
 40
1
 10
353.925341
 20
37.218770
 30
0.0
 10
353.925341
 20
37.218770
 30
0.0
 10
339.051792
 20
6.618652
 30
0.0
 10
348.578463
 20
6.006029
 30
0.0
  0
SPLINE
  5
157
100
AcDbEntity
  8
0
 62
7
100
AcDbSpline
 70
8
 71
3
 72
8
 73
4
 74
0
 40
0
 40
0
 40
0
 40
0
 40
1
 40
1
 40
1
 40
1
 10
348.578463
 20
6.006029
 30
0.0
 10
348.578463
 20
6.006029
 30
0.0
 10
349.322916
 20
3.978170
 30
0.0
 10
352.545002
 20
5.583397
 30
0.0
  0
SPLINE
  5
158
100
AcDbEntity
  8
0
 62
7
100
AcDbSpline
 70
8
 71
3
 72
8
 73
4
 74
0
 40
0
 40
0
 40
0
 40
0
 40
1
 40
1
 40
1
 40
1
 10
352.545002
 20
5.583397
 30
0.0
 10
352.545002
 20
5.583397
 30
0.0
 10
357.690257
 20
0.271415
 30
0.0
 10
363.250390
 20
3.152293
 30
0.0
  0
SPLINE
  5
159
100
AcDbEntity
  8
0
 62
7
100
AcDbSpline
 70
8
 71
3
 72
8
 73
4
 74
0
 40
0
 40
0
 40
0
 40
0
 40
1
 40
1
 40
1
 40
1
 10
363.250390
 20
3.152293
 30
0.0
 10
363.250390
 20
3.152293
 30
0.0
 10
368.399523
 20
-0.957708
 30
0.0
 10
372.800326
 20
2.702519
 30
0.0
  0
SPLINE
  5
15a
100
AcDbEntity
  8
0
 62
7
100
AcDbSpline
 70
8
 71
3
 72
8
 73
4
 74
0
 40
0
 40
0
 40
0
 40
0
 40
1
 40
1
 40
1
 40
1
 10
372.800326
 20
2.702519
 30
0.0
 10
372.800326
 20
2.702519
 30
0.0
 10
376.328723
 20
-1.357076
 30
0.0
 10
381.473978
 20
1.923170
 30
0.0
  0
SPLINE
  5
15b
100
AcDbEntity
  8
0
 62
7
100
AcDbSpline
 70
8
 71
3
 72
8
 73
4
 74
0
 40
0
 40
0
 40
0
 40
0
 40
1
 40
1
 40
1
 40
1
 10
381.473978
 20
1.923170
 30
0.0
 10
381.473978
 20
1.923170
 30
0.0
 10
388.228338
 20
-2.632727
 30
0.0
 10
392.241404
 20
2.303151
 30
0.0
  0
SPLINE
  5
15c
100
AcDbEntity
  8
0
 62
7
100
AcDbSpline
 70
8
 71
3
 72
8
 73
4
 74
0
 40
0
 40
0
 40
0
 40
0
 40
1
 40
1
 40
1
 40
1
 10
392.241404
 20
2.303151
 30
0.0
 10
392.241404
 20
2.303151
 30
0.0
 10
399.371868
 20
0.721189
 30
0.0
 10
386.677394
 20
32.880005
 30
0.0
  0
SPLINE
  5
15d
100
AcDbEntity
  8
0
 62
7
100
AcDbSpline
 70
8
 71
3
 72
8
 73
4
 74
0
 40
0
 40
0
 40
0
 40
0
 40
1
 40
1
 40
1
 40
1
 10
386.677394
 20
32.880005
 30
0.0
 10
386.677394
 20
32.880005
 30
0.0
 10
381.815186
 20
66.973624
 30
0.0
 10
379.135931
 20
73.677578
 30
0.0
  0
SPLINE
  5
15e
100
AcDbEntity
  8
0
 62
7
100
AcDbSpline
 70
8
 71
3
 72
8
 73
4
 74
0
 40
0
 40
0
 40
0
 40
0
 40
1
 40
1
 40
1
 40
1
 10
379.135931
 20
73.677578
 30
0.0
 10
374.025571
 20
86.375929
 30
0.0
 10
377.635393
 20
121.179105
 30
0.0
 10
378.724930
 20
128.639144
 30
0.0
  0
SPLINE
  5
15f
100
AcDbEntity
  8
0
 62
7
100
AcDbSpline
 70
8
 71
3
 72
8
 73
4
 74
0
 40
0
 40
0
 40
0
 40
0
 40
1
 40
1
 40
1
 40
1
 10
378.724930
 20
128.639144
 30
0.0
 10
380.481374
 20
141.108731
 30
0.0
 10
379.539176
 20
162.352782
 30
0.0
 10
376.328723
 20
178.788907
 30
0.0
  0
SPLINE
  5
160
100
AcDbEntity
  8
0
 62
7
100
AcDbSpline
 70
8
 71
3
 72
8
 73
4
 74
0
 40
0
 40
0
 40
0
 40
0
 40
1
 40
1
 40
1
 40
1
 10
376.328723
 20
178.788907
 30
0.0
 10
373.979043
 20
190.568324
 30
0.0
 10
380.341789
 20
212.808856
 30
0.0
 10
382.691469
 20
226.480424
 30
0.0
  0
SPLINE
  5
161
100
AcDbEntity
  8
0
 62
7
100
AcDbSpline
 70
8
 71
3
 72
8
 73
4
 74
0
 40
0
 40
0
 40
0
 40
0
 40
1
 40
1
 40
1
 40
1
 10
382.691469
 20
226.480424
 30
0.0
 10
387.518781
 20
255.262061
 30
0.0
 10
396.979537
 20
328.738017
 30
0.0
 10
395.796943
 20
342.642226
 30
0.0
  0
LWPOLYLINE
  5
162
100
AcDbEntity
  8
0
 62
7
100
AcDbPolyline
 90
2
 70
0
 10
285.761368
 20
377.201128
 30
0.0
 10
286.172368
 20
387.402460
 30
0.0
  0
SPLINE
  5
163
100
AcDbEntity
  8
0
 62
7
100
AcDbSpline
 70
8
 71
3
 72
8
 73
4
 74
0
 40
0
 40
0
 40
0
 40
0
 40
1
 40
1
 40
1
 40
1
 10
399.705321
 20
341.269641
 30
0.0
 10
402.504774
 20
341.261887
 30
0.0
 10
404.272850
 20
342.630594
 30
0.0
 10
404.272850
 20
342.630594
 30
0.0
  0
LWPOLYLINE
  5
164
100
AcDbEntity
  8
0
 62
7
100
AcDbPolyline
 90
2
 70
0
 10
395.796943
 20
342.642226
 30
0.0
 10
399.705321
 20
341.269641
 30
0.0
  0
LWPOLYLINE
  5
165
100
AcDbEntity
  8
0
 62
7
100
AcDbPolyline
 90
1
 70
1
 10
404.272850
 20
342.630594
 30
0.0
  0
ENDSEC
  0
SECTION
  2
OBJECTS
  0
DICTIONARY
  5
C
330
0
100
AcDbDictionary
  3
ACAD_GROUP
350
D
  3
ACAD_MLINESTYLE
350
17
  0
DICTIONARY
  5
D
330
C
100
AcDbDictionary
  0
DICTIONARY
  5
1A
330
C
100
AcDbDictionary
  0
DICTIONARY
  5
17
330
C
100
AcDbDictionary
  3
STANDARD
350
18
  0
DICTIONARY
  5
19
330
C
100
AcDbDictionary
  0
ENDSEC
  0
EOF
